<svg xmlns="http://www.w3.org/2000/svg"  viewBox="0 0 100 100" width="100px" height="100px"><path fill="#60be92" d="M70,18.988H31c-6.6,0-12,5.4-12,12v39c0,6.6,5.4,12,12,12h39c6.6,0,12-5.4,12-12v-39 C82,24.388,76.6,18.988,70,18.988z"/><path fill="#1f212b" d="M70,82.988H31c-7.18,0-13-5.82-13-13v-39c0-7.18,5.82-13,13-13h39c7.18,0,13,5.82,13,13v39 C83,77.168,77.179,82.988,70,82.988z M20,30.988v39c0,6.075,4.925,11,11,11h39c6.075,0,11-4.925,11-11v-39c0-6.075-4.925-11-11-11 H31C24.924,19.988,20,24.913,20,30.988z"/><path fill="#1f212b" d="M67.162,77.988H33.837C27.852,77.988,23,73.136,23,67.151V33.825 c0-5.985,4.852-10.837,10.837-10.837H67.5c0.276,0,0.5,0.224,0.5,0.5s-0.224,0.5-0.5,0.5H33.837c-5.433,0-9.837,4.404-9.837,9.837 V67.15c0,5.433,4.405,9.838,9.838,9.838h33.325c5.433,0,9.837-4.404,9.837-9.837V48.488c0-0.276,0.224-0.5,0.5-0.5 s0.5,0.224,0.5,0.5V67.15C78,73.136,73.147,77.988,67.162,77.988z M77.5,45.567c-0.276,0-0.5-0.224-0.5-0.5v-4 c0-0.276,0.224-0.5,0.5-0.5s0.5,0.224,0.5,0.5v4C78,45.344,77.776,45.567,77.5,45.567z M77.5,39.567c-0.276,0-0.5-0.224-0.5-0.5v-2 c0-0.276,0.224-0.5,0.5-0.5s0.5,0.224,0.5,0.5v2C78,39.344,77.776,39.567,77.5,39.567z"/><path fill="#fff" d="M38.224,31.373c0.988,1.486,3.012,4.655,4.343,6.747c0.785,1.235,0.808,2.81,0.062,4.069 l-0.302,0.509c-0.817,1.378-0.707,3.121,0.281,4.38c1.351,1.721,3.356,4.167,5.263,6.074c1.94,1.939,4.494,4.1,6.267,5.55 c1.246,1.019,2.984,1.142,4.358,0.308l0.557-0.338c1.203-0.73,2.702-0.734,3.907-0.009c2.058,1.238,5.198,3.143,6.69,4.135 c0.766,0.509,1.068,1.472,0.747,2.334c-0.96,2.584-2.529,5.368-7.497,5.368c-5.718,0-13.631-6.189-19.904-12.459l0,0 c-0.002-0.002-0.005-0.005-0.007-0.007c-0.002-0.002-0.005-0.005-0.007-0.007l0,0C36.711,51.754,30.5,44.163,30.5,38.305 c0-5.33,2.807-6.718,5.391-7.679C36.752,30.306,37.715,30.608,38.224,31.373z"/><path fill="none" stroke="#1f212b" stroke-linecap="round" stroke-linejoin="round" stroke-miterlimit="10" d="M38.224,31.373 c0.988,1.486,3.012,4.655,4.343,6.747c0.785,1.235,0.808,2.81,0.062,4.069l-0.302,0.509c-0.817,1.378-0.707,3.121,0.281,4.38 c1.351,1.721,3.356,4.167,5.263,6.074c1.94,1.939,4.494,4.1,6.267,5.55c1.246,1.019,2.984,1.142,4.358,0.308l0.557-0.338 c1.203-0.73,2.702-0.734,3.907-0.009c2.058,1.238,5.198,3.143,6.69,4.135c0.766,0.509,1.068,1.472,0.747,2.334 c-0.96,2.584-2.529,5.368-7.497,5.368c-5.718,0-13.631-6.189-19.904-12.459l0,0c-0.002-0.002-0.005-0.005-0.007-0.007 c-0.002-0.002-0.005-0.005-0.007-0.007l0,0C36.711,51.754,30.5,44.163,30.5,38.305c0-5.33,2.807-6.718,5.391-7.679 C36.752,30.306,37.715,30.608,38.224,31.373z"/></svg>